# xmcd
#
# Track frame offsets:
#	150
#	16570
#	34065
#	48830
#	59240
#	77647
#	98212
#	135255
#	154600
#	178067
#	182640
#
# Disc length: 2976 seconds
#
# Revision: 4
# Processed by: cddbd v1.5PL3 Copyright (c) Steve Scherf et al.
# Submitted via: audiograbber 1.83.01
#
DISCID=800b9e0b
DTITLE=Robert Earl Keen - Walking Distance
DYEAR=1998
DGENRE=Folk-Rock
TTITLE0=Down That Dusty Trail
TTITLE1=Traveling Light
TTITLE2=Feelin' Good Again
TTITLE3=That Buckin' Song
TTITLE4=I'll Be Here For You
TTITLE5=Billy Gray
TTITLE6=Theme: Road To No Return - Carolina
TTITLE7=New Life In Old Mexico
TTITLE8=Still Without You - Conclusion: Road To No Return
TTITLE9=(silent track)
TTITLE10=Happy Holidays Y'all
EXTD=
EXTT0=
EXTT1=
EXTT2=
EXTT3=
EXTT4=
EXTT5=
EXTT6=
EXTT7=
EXTT8=
EXTT9=
EXTT10=
PLAYORDER=
